<svg xmlns="http://www.w3.org/2000/svg" width="128" height="128" viewBox="0 0 128 128">
  <defs>
    <linearGradient id="g" x1="0" x2="1" y1="0" y2="1">
      <stop offset="0%" stop-color="#0052CC"/>
      <stop offset="100%" stop-color="#2684FF"/>
    </linearGradient>
  </defs>
  <rect rx="24" ry="24" x="4" y="4" width="120" height="120" fill="url(#g)"/>
  <g fill="#fff" transform="translate(20,22)">
    <path d="M24 24a24 24 0 1 1 48 0v4h6a6 6 0 0 1 6 6v6h-4v-6a2 2 0 0 0-2-2h-6v10l8 20h-64l8-20V32h-6a2 2 0 0 0-2 2v6h-4v-6a6 6 0 0 1 6-6h6v-4zM36 32v16h48V32a20 20 0 1 0-40 0z"/>
    <circle cx="36" cy="72" r="6"/>
    <circle cx="72" cy="72" r="6"/>
  </g>
</svg>


